{"title":"All Stars 2013 BRRip X264 AC3 - BiTo","uid":8880376,"size":1172265770,"categoryP":"video","categoryS":"movies","magnet":"?xt=urn:btih:213d64e8a9b4c22b88670848bb211926744591b5&amp;dn=All+Stars+2013+BRRip+X264+AC3+-+BiTo&amp;tr=udp%3A%2F%2Ftracker.openbittorrent.com%3A80&amp;tr=udp%3A%2F%2Fopen.demonii.com%3A1337&amp;tr=udp%3A%2F%2Ftracker.coppersurfer.tk%3A6969&amp;tr=udp%3A%2F%2Fexodus.desync.com%3A6969","seeders":1,"leechers":0,"uploader":"scenetime55","files":6,"time":1378309768,"description":"JOIN NOW SING UP IT&quot;S OPEN\n\nSceneTime,,Com\n SceneTime,,Com\n\n                                                         \n- Latest Releases\n- Super Fast Speeds\n- Good Community\n- Competitions with prizes (yay)\n- Love for the Scene\n\n\nCredit to EVERYONE for sharing and seeding back\nespecially to SceneTime where i get all my\ndownloads.\n\n\n &lt;a href=&quot;\nhttp://www.imdb.com/title/tt2186766&quot; rel=&quot;nofollow&quot; target=&quot;_NEW&quot;&gt;\nhttp://www.imdb.com/title/tt2186766&lt;/a&gt;\n\nSource: Bluray\nSample: Yes\nSubs: Eng Srt\nAudio: ENg @ 6 Ch\nCodec: X264\nContainer: Mkv\n\nVideo\nID                                       : 1\nFormat                                   : AVC\nFormat/Info                              : Advanced Video Codec\nFormat profile                           : &lt;a class=&quot;__cf_email__&quot; href=&quot;/cdn-cgi/l/email-protection&quot; data-cfemail=&quot;f0b8999798b0bcc3dec0&quot;&gt;[email&amp;#160;protected]&lt;/a&gt;&lt;script cf-hash='f9e31' type=&quot;text/javascript&quot;&gt;\n/* &lt;![CDATA[ */!function(){try{var t=&quot;currentScript&quot;in document?document.currentScript:function(){for(var t=document.getElementsByTagName(&quot;script&quot;),e=t.length;e--;)if(t[e].getAttribute(&quot;cf-hash&quot;))return t[e]}();if(t&amp;&amp;t.previousSibling){var e,r,n,i,c=t.previousSibling,a=c.getAttribute(&quot;data-cfemail&quot;);if(a){for(e=&quot;&quot;,r=parseInt(a.substr(0,2),16),n=2;a.length-n;n+=2)i=parseInt(a.substr(n,2),16)^r,e+=String.fromCharCode(i);e=document.createTextNode(e),c.parentNode.replaceChild(e,c)}}}catch(u){}}();/* ]]&gt; */&lt;/script&gt;\nFormat settings, CABAC                   : Yes\nFormat settings, ReFrames                : 4 frames\nCodec ID                                 : V_MPEG4/ISO/AVC\nDuration                                 : 1h 46mn\nBit rate                                 : 1 000 Kbps\nWidth                                    : 720 pixels\nHeight                                   : 384 pixels\nDisplay aspect ratio                     : 1.85:1\nFrame rate mode                          : Constant\nFrame rate                               : 23.976 fps\nColor space                              : YUV\nChroma subsampling                       : 4:2:0\nBit depth                                : 8 bits\nScan type                                : Progressive\nBits/(Pixel*Frame)                       : 0.151\nStream size                              : 746 MiB (67%)\nWriting library                          : x264 core 125 r2200bm 999b753\nDefault                                  : Yes\nForced                                   : No\n\nAudio\nID                                       : 2\nFormat                                   : AC-3\nFormat/Info                              : Audio Coding 3\nMode extension                           : CM (complete main)\nFormat settings, Endianness              : Big\nCodec ID                                 : A_AC3\nDuration                                 : 1h 46mn\nBit rate mode                            : Constant\nBit rate                                 : 448 Kbps\nChannel(s)                               : 6 channels\nChannel positions                        : Front: L C R, Side: L R, LFE\nSampling rate                            : 48.0 KHz\nBit depth                                : 16 bits\nCompression mode                         : Lossy\nStream size                              : 341 MiB (31%)\nDefault                                  : Yes\nForced                                   : No\n\n\nSCREENS\n &lt;a href=&quot;\nhttp://img809.imageshack.us/img809/169/oy1p.png&quot; rel=&quot;nofollow&quot; target=&quot;_NEW&quot;&gt;\nhttp://img809.imageshack.us/img809/169/oy1p.png&lt;/a&gt;\n &lt;a href=&quot;\nhttp://img90.imageshack.us/img90/2703/03df.png&quot; rel=&quot;nofollow&quot; target=&quot;_NEW&quot;&gt;\nhttp://img90.imageshack.us/img90/2703/03df.png&lt;/a&gt;\n &lt;a href=&quot;\nhttp://img823.imageshack.us/img823/9976/sy8t.png&quot; rel=&quot;nofollow&quot; target=&quot;_NEW&quot;&gt;\nhttp://img823.imageshack.us/img823/9976/sy8t.png&lt;/a&gt;\n &lt;a href=&quot;\nhttp://img12.imageshack.us/img12/562/4gej.png&quot; rel=&quot;nofollow&quot; target=&quot;_NEW&quot;&gt;\nhttp://img12.imageshack.us/img12/562/4gej.png&lt;/a&gt;","torrent":{"xt":"urn:btih:213d64e8a9b4c22b88670848bb211926744591b5","amp;dn":"All+Stars+2013+BRRip+X264+AC3+-+BiTo","amp;tr":["udp%3A%2F%2Ftracker.openbittorrent.com%3A80","udp%3A%2F%2Fopen.demonii.com%3A1337","udp%3A%2F%2Ftracker.coppersurfer.tk%3A6969","udp%3A%2F%2Fexodus.desync.com%3A6969"],"infoHash":"213d64e8a9b4c22b88670848bb211926744591b5","infoHashBuffer":{"type":"Buffer","data":[33,61,100,232,169,180,194,43,136,103,8,72,187,33,25,38,116,69,145,181]},"announce":[],"urlList":[]}}